<svg xmlns="http://www.w3.org/2000/svg" viewBox="-9.87 -6.999 24.86 13.95">
    <path
        d="m.2-.407c-1.105 1.695-2.424 2.681-3.625 2.333C-5.165.844-.985-5.213 2.261-5.721c.471-.293.968-1.17 1.253-1.178.249.012.4857.864.743 1.296 1.618.2 3.73 1.325 5.053 2.314.139.089 1.453-.737 1.695-.623.177.11.073 1.898-.538 2.936.529.816 1.305 1.85 1.326 3.258L-1.974-.403M1.247-2.605C1.25-2.63 1.273-2.981 1.551-2.979 1.791-2.976 1.836-2.693 1.831-2.589 1.836-2.359 1.662-2.239 1.54-2.239 1.436-2.237 1.246-2.336 1.247-2.604M5.811-1.094C5.813-1.276 5.934-1.531 6.133-1.529 6.356-1.53 6.455-1.276 6.456-1.081 6.465-.877 6.314-.687 6.142-.693 5.978-.688 5.807-.849 5.813-1.094zM2.529-2.441C2.521-2.191 2.897-1.8 3.331-2.133 3.544-1.458 4.132-1.757 4.281-2.005 4.313-2.046 4.308-2.08 4.291-2.095 4.196-2.163 4.085-1.867 3.709-1.884 3.438-1.889 3.431-2.18 3.418-2.217 3.406-2.273 3.363-2.284 3.32-2.258 3.287-2.245 3.191-2.091 2.919-2.165 2.715-2.26 2.681-2.417 2.659-2.483 2.63-2.602 2.527-2.584 2.529-2.44M-9.766-1.696 14.889 2.846 14.889 6.821-9.766 6.854ZM-1.141 5.256A1 1 0 01-2.044 5.357L-8.169 2.876A4 1 0 01-8.24 2.506L-5.722.024A1 1 0 01-5.09-.06L2.032 1.425A4 .9 0 012.259 1.872ZM-4.403 2.977C-4.504 2.931-4.856 2.379-4.414 1.363-4.079.878-3.362.161-2.463.477-1.976.671-1.411 1.452-1.976 2.319-2.517 3.077-3.355 3.721-4.4 2.975L-3.709 2.056ZM-9.77-1.696 2.992.647M2.995.643 14.892 2.852M-4.107 2.429C-4.07 2.375-3.996 2.346-3.95 2.376-3.91 2.403-3.907 2.481-3.95 2.542-4.017 2.633-4.077 2.648-4.129 2.61-4.174 2.578-4.167 2.498-4.107 2.429ZM-4.399 2.976-3.537 1.828-2.182 2.577C-2.577 3.037-3.354 3.721-4.401 2.976M-4.402 2.975-3.539 1.82-4.361 1.304C-4.574 1.586-4.821 2.562-4.406 2.978ZM7.063 1.35C6.898.293 6.467-2.05 7.581-2.295 8.715-2.57 9.464-1.238 9.717-.015M7.848-1.372C7.983-1.405 8.068-1.284 8.097-1.163 8.116-1.09 8.138-.897 7.981-.845 7.837-.816 7.755-.974 7.725-1.073 7.696-1.168 7.713-1.332 7.848-1.372ZM7.459-.694C7.652-.725 7.697-.489 7.706-.434 7.722-.338 7.706-.112 7.506-.096 7.363-.081 7.283-.23 7.267-.364 7.245-.498 7.303-.677 7.458-.693ZM8.506-.792C8.658-.819 8.78-.692 8.802-.518S8.734-.204 8.613-.186 8.4-.262 8.356-.438 8.388-.767 8.503-.792ZM8.093-.164C8.319-.204 8.52.06 8.571.271S8.634.944 8.327.975 7.877.642 7.834.451 7.836-.1 8.085-.161M4.256 1.406 5.863 1.787C5.971 1.799 6.046 1.866 5.983 1.941L5.546 2.669C5.488 2.753 5.392 2.778 5.317 2.757L3.56 2.286C3.498 2.265 3.473 2.199 3.509 2.134L4.066 1.461C4.107 1.409 4.151 1.385 4.257 1.406ZM6.528 1.925 7.398 2.135C7.474 2.154 7.5 2.204 7.462 2.271L7.085 3.033C7.021 3.11 6.955 3.124 6.848 3.103L5.978 2.9C5.912 2.865 5.887 2.82 5.905 2.744L6.347 1.99C6.381 1.928 6.458 1.907 6.528 1.923ZM7.165 2.268 6.859 2.911C6.353 2.81 6.234 2.726 6.258 2.561 6.298 2.38 6.375 2.286 6.483 2.204 6.632 2.075 6.963 2.105 7.165 2.262ZM8.12 2.307 9.019 2.524C9.121 2.554 9.118 2.645 9.099 2.689L8.763 3.484C8.733 3.545 8.681 3.586 8.592 3.57L7.637 3.343C7.573 3.325 7.491 3.276 7.518 3.154L7.885 2.416C7.936 2.33 8.029 2.282 8.12 2.304ZM8.706 2.812C8.775 2.572 8.389 2.312 8.205 2.555 8.142 2.708 8.162 2.825 8.363 2.982 8.622 3.168 8.462 3.359 8.424 3.369 8.294 3.415 8.159 3.421 7.994 3.263M9.622 2.667C9.9253 2.7453 10.2287 2.8237 10.532 2.902 10.615 2.928 10.658 2.968 10.643 3.041L10.393 3.894C10.37 3.967 10.286 3.995 10.21 3.981L9.245 3.74C9.156 3.715 9.125 3.64 9.14 3.574L9.45 2.755C9.479 2.676 9.577 2.663 9.619 2.667S9.619 2.667 9.619 2.667 9.619 2.667 9.619 2.667 9.619 2.667 9.619 2.667 9.619 2.667 9.619 2.667 9.619 2.667 9.619 2.667ZM9.658 2.794 9.77 3.772 10.403 3.025 10.13 3.344 9.914 3.208M4.632 2.915 5.567 3.149C5.634 3.177 5.636 3.249 5.608 3.294L5.092 4.183C5.029 4.285 4.93 4.316 4.801 4.293L3.804 4.061C3.741 4.049 3.7 3.973 3.745 3.9L4.334 2.997C4.392 2.907 4.523 2.895 4.624 2.914ZM5.24 3.216 4.708 4.068 4.955 4.055C4.678 4.088 4.128 4.088 4.18 3.819 4.293 3.508 4.518 3.441 5.006 3.585L4.716 3.516 4.644 3.103M6.22 3.296 7.165 3.5C7.242 3.518 7.262 3.595 7.232 3.665L6.8 4.561C6.749 4.643 6.671 4.672 6.572 4.64L5.543 4.419C5.451 4.405 5.419 4.323 5.46 4.247L5.964 3.385C6.026 3.294 6.13 3.276 6.22 3.296ZM5.792 4.299 6.451 4.45 6.251 4.404 6.547 3.975 6.071 3.869 6.735 4.023 6.735 4.023 6.548 3.975C6.803 3.622 6.7 3.44 6.269 3.431M7.743 3.66 8.665 3.864C8.764 3.888 8.794 3.959 8.769 4.033L8.4 5.013C8.353 5.097 8.27 5.083 8.196 5.066L7.209 4.834C7.118 4.817 7.045 4.743 7.092 4.622L7.505 3.744C7.546 3.658 7.649 3.64 7.743 3.66ZM7.226 4.534 7.905 3.827 7.905 4.519 7.768 4.691 8.417 3.885 8.414 4.871M9.3 4.01 10.286 4.248C10.367 4.265 10.397 4.303 10.382 4.369L10.127 5.362C10.094 5.463 10.006 5.494 9.906 5.466L8.869 5.218C8.789 5.201 8.75 5.125 8.777 5.049L9.107 4.129C9.146 4.032 9.205 3.995 9.3 4.01ZM9.444 4.295C9.183 4.445 9.131 4.747 9.206 4.979 9.457 5.579 9.983 5.038 10.032 4.769 10.127 4.457 9.833 4.073 9.444 4.295L9.271 4.154 9.673 4.481M3.694 4.273 4.2 4.405C4.255 4.419 4.286 4.471 4.259 4.508L3.898 5.056C3.854 5.106 3.785 5.133 3.699 5.116L3.203 4.968C3.156 4.951 3.14 4.884 3.18 4.828L3.554 4.321C3.59 4.279 3.638 4.261 3.694 4.273ZM3.735 4.991C3.647 4.963 3.374 4.889 3.48 4.785L3.84 4.413M4.209 5.075 4.518 4.594C4.543 4.562 4.574 4.517 4.647 4.53L5.176 4.644C5.25 4.662 5.268 4.708 5.241 4.753L4.936 5.296C4.91 5.347 4.866 5.375 4.806 5.358L4.239 5.206C4.178 5.188 4.175 5.136 4.209 5.075ZM4.619 5.174C4.808 5.114 5.049 4.8 4.907 4.717 4.808 4.656 4.692 4.709 4.65 4.797 4.584 4.928 4.699 5.009 4.837 5.013M5.663 4.735 6.159 4.862C6.214 4.875 6.254 4.936 6.228 4.983L5.929 5.553C5.897 5.608 5.85 5.618 5.807 5.61L5.222 5.46C5.178 5.444 5.166 5.38 5.195 5.326L5.495 4.788C5.541 4.73 5.591 4.718 5.665 4.736M5.498 5.312 5.722 5.348 5.842 5.159C5.58 5.152 5.604 4.91 5.835 4.863M6.606 4.983 7.136 5.112C7.189 5.124 7.224 5.172 7.202 5.221L6.916 5.796C6.899 5.831 6.859 5.843 6.808 5.833L6.284 5.721C6.232 5.696 6.212 5.65 6.228 5.607L6.492 5.031C6.509 4.995 6.561 4.971 6.604 4.981ZM6.722 5.093 6.546 5.477 6.661 5.229 6.567 5.212C6.966 5.278 6.882 5.332 6.694 5.652M7.574 5.175 8.127 5.309C8.166 5.329 8.198 5.361 8.189 5.423L7.96 5.961C7.935 6.022 7.906 6.041 7.838 6.035L7.287 5.914C7.235 5.901 7.203 5.842 7.224 5.79L7.458 5.247C7.486 5.195 7.516 5.178 7.559 5.178M7.84 5.389C7.695 5.363 7.555 5.48 7.738 5.614 7.576 5.642 7.473 5.754 7.542 5.851 7.607 5.939 7.734 5.965 7.848 5.853M8.523 5.421 9.04 5.548C9.11 5.574 9.123 5.626 9.118 5.67L8.94 6.25C8.908 6.325 8.881 6.351 8.823 6.341L8.225 6.169C8.184 6.143 8.159 6.086 8.181 6.033L8.389 5.484C8.425 5.416 8.459 5.401 8.525 5.421M8.572 5.57 8.862 5.584C8.578 5.778 8.322 6.15 8.747 6.094M9.421 5.644 10.004 5.776C10.049 5.799 10.0593 5.835 10.049 5.892L9.904 6.466C9.889 6.519 9.843 6.528 9.803 6.525L9.223 6.386C9.175 6.368 9.14 6.348 9.135 6.284L9.315 5.715C9.333 5.664 9.361 5.635 9.417 5.64ZM9.576 6.327 9.728 5.8M9.988.782C10.523 2.788 8.389 5.554 6.858 5.153 5.969 4.923 6.05 2.833 7.016 1.288"
        stroke="#000" stroke-width="0.1" fill="#FFF" />
</svg>